<?xml version="1.0" encoding="utf-8"?>
<!-- Generator: Adobe Illustrator 16.0.0, SVG Export Plug-In . SVG Version: 6.00 Build 0)  -->
<!DOCTYPE svg PUBLIC "-//W3C//DTD SVG 1.1//EN" "http://www.w3.org/Graphics/SVG/1.1/DTD/svg11.dtd">
<svg version="1.1" id="Layer_1" xmlns="http://www.w3.org/2000/svg" xmlns:xlink="http://www.w3.org/1999/xlink" x="0px" y="0px"
	 width="1877.624px" height="1590.101px" viewBox="0 0 1877.624 1590.101" enable-background="new 0 0 1877.624 1590.101"
	 xml:space="preserve">
<g>
	<path d="M328.365,987.549c-10.692-0.486-17.268-9.178-19.467-14.238c-0.351-0.806-0.541-1.671-0.561-2.549l-0.419-18.454
		c-3.659-46.625-0.66-108.244-0.434-112.726c-0.799-40.24,11.952-91.334,12.497-93.494c0.016-0.064,0.033-0.128,0.051-0.191
		c20.808-73.44,47.332-88.36,52.656-90.675c6.592-3.787,14.536-5.706,23.622-5.706c18.949,0,37.448,8.341,41.114,10.088
		c33.918,9.598,48.47,45.107,51.071,52.21c23.936,1.9,34.355,30.151,35.862,34.638c11.728,24.138,17.181,87.832,17.409,90.549
		c0.016,0.188,0.024,0.377,0.024,0.566c0,30.932-18.726,45.202-27.699,50.263l4.369,70.707l1.669,13.348
		c0.048,0.386,0.063,0.775,0.044,1.163c-0.452,9.494-6.954,12.863-12.384,12.863c0,0,0,0,0,0c-1.535,0-2.883-0.242-3.843-0.481
		l-57.195-0.4c-2.814,1.948-5.473,2.416-7.377,2.416c-3.976,0-7.349-2.021-9.582-4.268c-7.987-3.502-10.019-13.49-8.372-22.746
		l-2.877-45.632c-0.728-2.953-2.149-3.99-2.637-4.269c-1.06-0.229-1.574-0.619-2.304-1.33c-0.483-0.172-2.099-0.617-5.812-0.617
		c-4.003,0-7.818,0.518-7.856,0.523c-0.027,0.004-0.06,0.008-0.087,0.012c-3.982,0.497-5.416,2.534-5.876,3.491
		c0.688,16.119-0.699,35.311-0.896,37.919v6.218c0.571,6.515,0.232,10.242-0.424,12.543v5.13c0,0.173-0.006,0.347-0.02,0.52
		c-0.594,7.725-7.474,11.767-13.962,11.767l-46.072-0.404c-1.147,0.814-2.519,1.251-3.924,1.251
		C328.57,987.557,328.468,987.554,328.365,987.549z M452.965,953.029c-0.077,0.306-0.13,0.688-0.151,1.037l34.658-0.365
		c-1.605-41.187-4.375-105.819-5.274-111.338c-0.049-0.229-0.086-0.461-0.11-0.695c-0.084-0.798-8.5-80.141-16.676-106.306
		c-0.088-0.282-0.158-0.569-0.209-0.861c-0.255-1.407-6.769-35.141-43.667-46.812c-0.222-0.07-0.44-0.152-0.653-0.244
		c-0.132-0.058-13.989-5.976-26.105-5.976c-6.212,0-10.508,1.556-12.77,4.625c-0.138,0.187-0.285,0.367-0.441,0.539
		c-0.137,0.152-7.14,8.026-14.985,22.104c3.972-1.311,8.803-2.339,14.582-3.119c10.223-1.378,21.421-1.668,29.014-1.668
		c4.902,0,8.354,0.119,9.236,0.152c0.417-0.007,0.828-0.011,1.234-0.011c20.253,0,27.939,8.946,29.997,12.053
		c10.454,12.341,12.809,48.595,13.178,55.83c0.006,0.115,0.009,0.23,0.009,0.345c0,9.711-2.311,17.408-6.867,22.876
		c-2.76,3.312-5.671,4.918-7.359,5.633c-10.235,6.643-27.913,8.057-41.099,8.057c-0.001,0-0.001,0-0.002,0
		c-3.225,0-5.507-0.093-6.231-0.127c-0.528,0.006-1.05,0.009-1.567,0.009c-28.359,0-41.212-9.229-44.677-12.269
		c-6.138-3.509-9.773-8.687-11.887-14.072c-2.664,16.866-6.854,47.273-7.419,74.715l-0.423,93.159
		c-0.001,0.335-0.028,0.67-0.079,1.001c-0.098,0.705-0.108,1.609-0.045,2.345c0,0,24.778-0.413,24.869-0.413
		c0.105,0,0.206,0.001,0.303,0.004l0.344-14.108c-1.003-2.977-2.535-9.417,0.068-15.898c-0.535-2.897-0.875-7.505,0.745-12.515
		c-0.145-5.063,0.61-19.855,13.494-27.678c0.074-0.045,0.149-0.089,0.225-0.131c0.642-0.356,15.944-8.725,36.843-8.725
		c3.238,0,6.48,0.204,9.651,0.607c0.645-0.07,1.486-0.13,2.478-0.13c17.042,0,22.058,15.132,23.189,19.77
		c0.073,0.299,0.126,0.603,0.157,0.909l1.236,11.947c0.417,2.064,2.211,11.701,2.608,26.203l0.844,17.298
		C453.271,951.607,453.216,952.255,452.965,953.029z M505.995,789.14c1.895,16.429,3.969,40.212,5.265,55.817
		c0.26-0.849,0.503-1.702,0.722-2.544c-0.155-7.365-2.234-26.856-3.054-34.013C508.213,801.427,507.194,795.002,505.995,789.14z
		 M383.668,777.438c0.509,0.164,4.135,1.237,11.525,1.237c0.345,0,0.689,0.026,1.031,0.079l4.477,0.689l4.315-0.664
		c1.637-0.331,13.095-2.577,22.782-2.645c2.815-0.396,5.962-1.627,7.11-2.706c-1.001-14.044-3.368-30.361-5.518-33.628
		c-0.232-0.269-0.325-0.369-0.504-0.682c-0.548-0.73-5.094-6.252-17.109-6.252c-0.607,0-1.23,0.014-1.871,0.043
		c-0.036,0.002-0.072,0.003-0.108,0.004c-10.218,0.301-22.737,1.29-26.415,2.337c-1.128,0.954-2.53,1.495-4.069,1.495
		c-0.098,0-0.198-0.002-0.298-0.006c-0.995,0.186-2.833,1.607-3.954,5.928c-0.156,0.601-0.394,1.178-0.707,1.714
		c-0.084,0.147-9.37,16.633-1.703,29.331c0.64,0.567,3.296,2.587,9.366,3.315C382.67,777.107,383.081,777.184,383.668,777.438z"/>
	<path fill="#FFFFFF" d="M419.343,710.884c0,0-49.996-2.119-59.317,9.321c0,0-11.016,21.608-11.44,40.251
		c0,0-3.813,22.456,11.44,30.506c0,0,11.016,11.44,42.369,11.016c0,0,31.354,1.695,44.064-7.203c0,0,10.592-2.966,10.592-22.456
		c0,0-2.118-41.522-11.863-52.114C445.188,720.206,440.104,710.46,419.343,710.884z M428.241,782.912
		c-9.745,0-22.032,2.542-22.032,2.542l-5.508,0.847l-5.508-0.847c-9.745,0-13.982-1.695-13.982-1.695
		c-10.592-1.271-13.982-5.932-13.982-5.932c-10.592-16.524,1.271-36.861,1.271-36.861c2.966-11.44,10.592-11.016,10.592-11.016
		c1.695-2.966,30.506-3.813,30.506-3.813c18.643-0.847,24.998,9.321,24.998,9.321c5.084,5.932,7.203,39.404,7.203,39.404
		C439.681,781.641,428.241,782.912,428.241,782.912z M535.012,837.569c0,0-5.508-65.672-16.948-88.552
		c0,0-9.745-31.353-33.048-30.506l-2.542-3.39c0,0-13.135-39.827-47.454-49.148c0,0-36.438-18.219-59.317-4.661
		c0,0-27.54,10.169-49.148,86.434c0,0-13.134,52.114-12.287,91.942c0,0-3.389,63.978,0.424,112.278l0.424,18.643
		c0,0,4.237,9.745,13.558,10.169l1.695-1.271l48.301,0.424c0,0,6.779,0,7.203-5.508v-6.355c0,0,1.271-1.695,0.423-11.016v-6.779
		c0,0,1.695-21.608,0.848-38.557c0,0,1.695-8.05,11.863-9.321c0,0,15.253-2.119,19.066,1.695c0,0,5.508,1.694,7.203,9.745
		l2.966,47.03c0,0-2.966,14.406,5.508,16.524c0,0,4.66,6.779,10.592,0.848l60.588,0.423c0,0,8.05,2.966,8.474-5.932l-1.695-13.558
		l-4.661-75.417C507.048,883.751,535.012,873.159,535.012,837.569z M494.337,959.169l-2.966,1.271l-40.251,0.424
		c-7.203-1.271-4.66-9.745-4.66-9.745l-0.848-17.372c-0.424-15.677-2.542-25.421-2.542-25.421l-1.271-12.287
		c-4.237-17.372-19.066-14.406-19.066-14.406c-24.151-3.39-43.217,7.203-43.217,7.203c-11.864,7.203-10.168,22.879-10.168,22.879
		c-2.542,6.355-0.424,12.287-0.424,12.287c-3.813,6.355-0.424,13.982-0.424,13.982l-0.424,17.371
		c-0.424,7.203-7.203,4.661-7.203,4.661l-25.421,0.424c-7.627,0.847-5.932-10.168-5.932-10.168l0.424-93.213
		c0.847-41.522,9.745-88.976,9.745-88.976c7.203-53.386,36.861-86.01,36.861-86.01c11.863-16.101,47.03-0.848,47.03-0.848
		c41.522,13.135,48.301,52.114,48.301,52.114c8.474,27.117,16.948,107.618,16.948,107.618c1.271,5.508,5.508,114.821,5.508,114.821
		V959.169z M505.777,861.296c0,0-5.367-69.204-8.474-85.586c0,0-6.779-34.178-8.756-36.438c0,0,2.26-4.802,6.497,1.412
		c0,0,16.1,22.879,20.62,66.943c0,0,3.107,27.117,3.107,35.59C518.771,843.218,512.838,867.51,505.777,861.296z"/>
	<path d="M739.253,988.628c-1.539,0-2.776-0.208-3.417-0.343c-10.105-1.683-13.485-8.323-13.927-12.197l-5.916-42.681
		c-0.012-0.085-0.022-0.171-0.031-0.257l-7.618-76.181c0,0-10.593-84.748-10.598-84.793l-1.754-16.783l-9.79,63.213l-12.276,95.245
		l-8.052,61.45c-0.081,0.616-0.246,1.218-0.491,1.79c-3.482,8.125-7.886,9.986-10.201,10.372c-0.368,0.062-0.741,0.093-1.114,0.093
		c-0.161,0-0.322-0.006-0.482-0.018l-5.713-0.408c-8.922-0.11-13.36-5.766-14.581-9.121c-0.08-0.221-0.148-0.445-0.206-0.673
		l-4.237-16.947c-0.049-0.197-0.09-0.395-0.121-0.595l-17.779-113.444l-17.192-90.824l-9.25,61.86L563.752,948.71l-2.955,21.956
		c-0.017,0.121-0.037,0.243-0.06,0.364l-1.695,8.897c-0.215,1.13-0.715,2.187-1.451,3.072c-2.06,2.471-6.004,5.417-13.095,5.417
		c0,0,0.001,0,0,0c-4.158,0-7.681-1.035-8.068-1.153c-0.237-0.072-0.469-0.157-0.697-0.255c-7.391-3.167-9.266-11.224-7.371-17.832
		l2.892-22.727c0.01-0.082,0.022-0.164,0.036-0.245l23.296-141.469l19.863-131.439c0.6-8.569,4.798-15.323,5.281-16.074
		c0.737-1.146,1.801-2.043,3.055-2.575c3.083-1.308,5.995-1.971,8.656-1.971c8.556,0,13.508,6.551,14.547,13.795
		c4.195,5.103,6.973,13.129,8.462,24.405c0.963,7.292,1.064,13.744,1.068,15.933l21.887,105.228c0.02,0.098,0.039,0.196,0.054,0.295
		l10.267,63.312c0,0,15.322-105.213,15.328-105.246l16.081-100.292c2.257-18.156,13.979-19.675,16.136-19.8v-0.003
		c0.276-0.013,0.549-0.02,0.821-0.02c10.312,0,16.985,9.266,19.302,14.741c0.246,0.582,0.41,1.195,0.486,1.822l2.118,17.372
		l13.128,101.638c0,0,16.968,142.107,16.973,142.161l4.661,48.725c0.094,0.99-0.03,1.989-0.364,2.925
		C750.392,985.278,745.479,988.628,739.253,988.628z"/>
	<path fill="#FFFFFF" d="M535.012,970.608c0,0-2.542,7.627,3.39,10.169c0,0,9.745,2.966,13.981-2.119l1.695-8.897l2.966-22.032
		l20.761-131.345l13.558-90.67c0,0,2.119-5.932,3.813,0.847l22.456,118.634l17.795,113.55l4.237,16.948c0,0,1.695,4.661,8.474,4.661
		l5.932,0.424c0,0,2.542-0.424,5.084-6.355l8.05-61.436l12.287-95.331L694.32,721.9c0,0,1.695-14.406,4.237-7.203l5.932,56.775
		l10.592,84.739l7.626,76.265l5.932,42.793c0,0,0.424,5.084,8.474,6.355c0,0,6.779,1.695,8.897-4.237l-4.661-48.725l-16.948-141.938
		l-13.134-101.687l-2.119-17.372c0,0-4.661-11.016-13.558-10.592c0,0-8.05,0-9.745,13.982l-16.101,100.416L650.68,902.394
		l-0.848,11.439c0,0-1.695,14.406-3.813-6.355l-15.253-94.061l-22.032-105.923c0,0,0.424-29.235-9.321-38.132
		c0,0,0-14.405-13.982-8.474c0,0-3.813,5.932-4.237,13.134l-19.914,131.769l-23.303,141.514L535.012,970.608z"/>
	<g>
		<path d="M813.623,988.006c-0.703,0-1.188-0.042-1.416-0.067c-28.27-3.056-40.418-28.186-43.077-41.691
			c-6.279-15.817-10.791-41.333-13.408-75.859c-1.807-23.833-2.054-44.102-2.082-47.206c-2.028-17.379,3.133-91.958,3.399-95.777
			c2.664-46.848,24.262-69.834,25.18-70.79c0.214-0.222,0.442-0.43,0.684-0.621c5.811-4.595,12.461-6.924,19.766-6.924
			c15.21,0,27.987,10.4,29.019,11.262c9.791,8.045,18.379,23.26,25.526,45.223c4.861,14.939,7.34,27.791,7.701,29.731
			c6.027,24.241,3.235,102.181,3.113,105.497c-0.001,0.044-0.003,0.088-0.006,0.132c-2.973,52.663-18.232,107.995-18.88,110.324
			c-0.02,0.069-0.039,0.137-0.061,0.206C838.483,985.368,819.264,988.006,813.623,988.006
			C813.623,988.006,813.624,988.006,813.623,988.006z M793.804,911.491c5.95,35.052,14.448,39.304,15.561,39.709
			c0.093-0.015,0.186-0.027,0.279-0.038c7.306-0.835,12.382-16.578,13.576-23.631c0.093-0.551,0.254-1.088,0.479-1.599
			c3.078-6.995,8.307-49.384,10.89-74.542c3.941-56.273,0.412-93.733-2.006-105.682c-0.083-0.408-0.129-0.83-0.136-1.245
			c-0.389-24.517-19.177-56.037-19.367-56.353c-0.18-0.299-0.338-0.615-0.47-0.938c-0.74-1.816-1.981-3.498-6.018-3.498
			c-2.303,0-4.231,0.601-4.25,0.607c-0.196,0.065-0.366,0.112-0.555,0.155c-3.106,1.786-7.781,15.442-9.663,28.277
			c-0.009,0.064-0.02,0.129-0.031,0.194c-0.041,0.265-1.339,8.996-4.994,68.301C783.416,840.914,793.457,909.167,793.804,911.491z"
			/>
		<path fill="#FFFFFF" d="M858.29,736.729c0,0-9.745-53.809-30.93-71.181c0,0-22.032-18.642-40.251-4.237
			c0,0-20.761,21.608-23.303,66.52c0,0-5.508,78.807-3.389,94.907c0,0,0.423,85.163,15.253,121.601c0,0,5.932,33.472,37.285,36.861
			c0,0,19.066,2.118,29.658-31.777c0,0,15.677-56.351,18.643-108.889C861.256,840.535,864.222,760.033,858.29,736.729z
			 M841.342,851.975c0,0-6.779,66.096-11.44,76.688c0,0-4.66,27.54-19.49,29.234c0,0-14.829,4.661-23.303-45.335
			c0,0-10.592-69.909-6.779-131.769c3.813-61.859,5.084-69.062,5.084-69.062s4.661-31.777,14.83-33.896
			c0,0,13.981-4.66,18.643,6.779c0,0,19.913,33.048,20.337,59.741C839.224,744.356,846.427,779.522,841.342,851.975z"/>
	</g>
	<path d="M893.111,988.037c-2.959,0-5.408-0.471-6.083-0.614c-5.235-0.995-8.537-2.733-10.382-5.467
		c-0.627-0.928-1.053-1.955-1.263-3.003c-1.22-3.98-0.607-9.203-0.146-11.909v-16.454c-1.501-7.666-0.73-27.441-0.426-33.896
		c0,0-0.845-53.243-0.845-53.279V674.87c0-0.188,0.008-0.375,0.023-0.563c1.352-16.222,11.799-21.042,17.806-21.441
		c1.388-0.263,2.766-0.396,4.105-0.396c14.469,0,21.091,14.497,22.798,23.356l21.511,72.967c0.036,0.122,0.068,0.244,0.097,0.366
		l21.608,91.942l8.52,36.379l0.558-71.679l-0.421-36.623l-2.532-40.929c-0.009-0.139-0.013-0.279-0.013-0.418v-48.179
		c-0.413-11.63,1.784-20.022,6.529-24.947c3.944-4.093,8.293-4.41,9.533-4.41c0.095,0,0.226,0.002,0.32,0.006
		c0.17,0.007,0.341,0.021,0.51,0.041c7.99,0.94,11.974,4.807,13.91,7.885c3.717,5.911,2.449,12.714,1.753,15.309
		c-1.188,17.064-1.202,47.21-1.202,47.517c0,11.79,1.599,83.74,1.689,87.803c2.519,34.437-1.527,105.733-1.7,108.756l-2.964,58.003
		c-0.019,0.378-0.07,0.755-0.152,1.125c-1.593,7.166-4.814,10.799-9.577,10.799c-0.705,0-1.405-0.099-2.08-0.287l-8.825,0.707
		c-0.18,0.015-0.361,0.021-0.541,0.021c-0.446,0-0.891-0.044-1.33-0.131c-9.731-1.946-13.152-16.178-14.207-22.606l-14.319-53.905
		c-0.023-0.085-0.044-0.171-0.063-0.258l-10.995-49.055l-28.571-112.418c0.011,24.404,0.071,99.375,0.421,127.707
		c0.418,33.853,2.518,96.254,2.539,96.881c0.011,0.326-0.002,0.652-0.038,0.977l-0.423,3.813c-0.145,1.301-0.663,2.532-1.491,3.544
		c-2.057,2.513-6.092,5.509-13.641,5.509C893.112,988.037,893.112,988.037,893.111,988.037z"/>
	<path fill="#FFFFFF" d="M882.017,967.643c0,0-1.271,6.779,0,9.745c0,0-0.423,2.118,6.355,3.39c0,0,9.321,2.118,13.135-2.542
		l0.424-3.813c0,0-2.119-62.707-2.542-97.026c-0.423-34.319-0.423-135.582-0.423-135.582v-38.556c0,0,0.423-5.932,2.966,3.813
		l38.979,153.377l11.016,49.148l14.406,54.233c0,0,2.542,16.1,8.897,17.372l10.592-0.848c0,0,2.119,2.542,3.813-5.084l2.966-58.046
		c0,0,4.237-73.723,1.695-108.042c0,0-1.695-75.841-1.695-88.128c0,0,0-31.353,1.271-48.725c0,0,4.661-13.558-9.745-15.253
		c0,0-10.168-0.424-9.321,22.456v48.301l2.542,41.099l0.423,36.861l-0.847,108.889c0,0-2.966,16.1-5.932-5.084l-15.677-66.943
		l-21.608-91.942l-21.608-73.299c0,0-3.813-21.185-19.49-17.795c0,0-10.593,0-11.864,15.253v77.96v110.584l0.848,53.386
		c0,0-1.271,26.692,0.423,33.048V967.643z"/>
	<path d="M1068.866,988.404c-12.787,0-39.429-7.729-49.116-36.931c-1.871-4.176-15.238-36.214-14.438-96.941
		c-0.073-4.17-1.16-72.059,4.294-114.015c0.208-1.718,5.467-43.539,25.114-70.526c2.067-3.752,12.593-19.928,40.391-19.928
		c1.98,0,4.034,0.084,6.104,0.25c3.909,0.25,16.541,1.569,21.987,8.216c1.422,1.506,5.531,6.465,5.467,13.403
		c-0.032,3.455-1.157,8.532-6.146,13.636c-0.971,1.5-2.96,3.341-6.874,3.341c-1.881,0-5.692-0.335-17.024-3.234
		c-0.155-0.04-0.31-0.085-0.463-0.136c0,0,0,0,0,0c-0.003,0-1.957-0.591-4.632-0.591c-5.793,0-10.125,2.549-13.243,7.792
		c-0.067,0.113-0.137,0.224-0.211,0.333c-0.041,0.061-4.887,7.352-9.911,20.25c-4.619,11.858-10.344,31.035-11.388,55.054
		c-0.004,0.084-0.009,0.168-0.016,0.251c-0.046,0.571-4.575,57.524-1.274,95.899c0.015,0.176,0.023,0.354,0.025,0.53
		c0.118,15.363,2.814,58.888,13.724,75.572c0.287,0.438,0.458,0.738,0.633,1.221c0.43,0.991,3.677,7.691,12.833,7.691
		c4.041,0,8.748-1.249,13.993-3.712c0.263-0.124,0.533-0.229,0.808-0.318c1.486-1.574,8.557-11.37,12.246-57.826l0.418-41.398
		c-0.27-4.452,2.268-12.65,13.968-15.703c0.535-0.14,1.083-0.213,1.636-0.22l38.02-0.422c0.123-0.004,0.301-0.009,0.528-0.009
		c2.188,0,9.647,0.476,13.793,6.599c3.226,4.764,3.297,11.092,0.211,18.805c-0.07,0.174-0.146,0.346-0.23,0.514
		c-1.341,2.682-5.881,7.653-21.221,10.811c-0.401,0.083-0.81,0.129-1.22,0.138l-12.767,0.278
		c0.087,17.339-0.666,62.927-10.374,84.991c-1.066,2.597-14.378,33.476-45.022,36.304
		C1069.282,988.395,1069.074,988.404,1068.866,988.404z"/>
	<path fill="#FFFFFF" d="M1098.101,663.007c0,0,9.321,8.897-1.271,18.643c0,0,1.695,2.119-16.524-2.542
		c0,0-16.524-5.508-25.846,10.168c0,0-20.337,30.083-22.456,78.807c0,0-4.661,57.622-1.271,97.026c0,0,0.424,57.199,14.829,79.231
		c0,0,8.05,20.761,36.014,7.626c0,0,11.863,0.424,16.948-63.978l0.424-41.946c0,0-0.848-6.355,8.897-8.897l38.132-0.424
		c0,0,14.83-0.847,8.05,16.101c0,0-2.119,4.237-16.524,7.203l-19.49,0.424c0,0,1.695,63.13-9.745,88.976
		c0,0-11.864,29.659-39.404,32.201c0,0-32.201,0-42.793-32.625c0,0-14.83-31.353-13.982-94.483c0,0-1.271-70.757,4.237-113.126
		c0,0,5.084-41.946,24.151-67.791c0,0,8.897-19.066,40.251-16.524C1080.729,657.075,1094.288,657.923,1098.101,663.007z"/>
	<path d="M1366.533,985.881c-5.974,0-12.412-0.945-19.134-2.808c-0.24-0.066-0.477-0.146-0.708-0.239
		c-1.542-0.617-37.853-16.073-44.908-100.584c-0.488-4.907-10.204-102.764-11.881-130.709c-0.005-0.093-0.009-0.187-0.011-0.28
		l-1.125-60.803c-0.438-5.498-1.563-22.804,0.969-29.768c0.112-0.309,0.246-0.608,0.402-0.897
		c0.907-1.686,5.864-10.093,14.338-10.093c5.416,0,10.088,3.337,13.885,9.919c0.561,0.972,0.872,2.068,0.904,3.19l2.257,77.268
		c0.319,4.782,9.218,136.806,18.421,171.451c0.012,0.046,0.024,0.092,0.035,0.139c5.503,22.557,14.942,38.986,20.305,40.178
		c0.526,0.117,0.823,0.194,1.29,0.424c0.296,0.11,1.753,0.61,3.807,0.61c7.758,0,14.638-6.748,19.897-19.515
		c3.607-9.466,11.666-42.022,16.478-97.874l2.818-103.685c0.011-1.206,0.184-18.219,1.139-35.213
		c0.585-10.416,1.349-18.829,2.27-25.008c1.393-9.345,3.203-15.242,8.062-17.099c1.275-0.622,3.814-1.634,6.854-1.634
		c3.58,0,12.145,1.491,14.354,15.297c0.063,0.397,0.092,0.799,0.084,1.202c0,0-1.131,58.83-1.133,58.869
		c-0.034,0.924-3.375,92.571-2.825,107.402c0.008,0.235,0.005,0.47-0.011,0.705c-0.233,3.467-5.832,84.593-21.284,114.951
		C1408.784,963.736,1395.43,985.881,1366.533,985.881z"/>
	<path fill="#FFFFFF" d="M1295.542,690.123c0,0-1.694-20.902,0.565-27.116c0,0,7.908-14.688,16.382,0l2.26,77.395
		c0,0,9.037,136.712,18.642,172.867c0,0,10.168,41.805,25.421,45.194c0,0,19.773,9.039,32.766-22.597
		c0,0,10.733-27.681,16.948-99.992l2.825-103.946c0,0,0.563-69.486,7.343-71.181c0,0,9.604-5.649,11.863,8.474l-1.129,58.752
		c0,0-3.39,92.648-2.825,107.901c0,0-5.649,84.174-20.902,112.985c0,0-9.604,40.674-56.493,27.681c0,0-33.896-13.558-40.674-94.907
		c0,0-10.17-102.251-11.864-130.498L1295.542,690.123z"/>
	<path d="M1502.677,987.471c-12.392,0-23.369-3.269-32.625-9.717c-11.846-8.252-20.482-21.522-25.668-39.439
		c-0.066-0.228-0.12-0.459-0.162-0.693c-0.117-0.658-2.896-16.326-4.459-34.361c-2.218-25.611-0.848-42.142,4.189-50.538
		c0.285-0.476,0.627-0.914,1.02-1.306c0.817-0.817,5.191-4.894,11.049-4.894c5.292,0,12.205,3.019,15.081,17.397
		c0.143,0.716,0.169,1.452,0.078,2.177c-2.345,18.734-3.648,70.198,18.197,83.144c0.086,0.051,0.172,0.104,0.256,0.16
		c0.022,0.014,6.502,4.049,15.808,4.049c12.841,0,24.896-7.369,35.836-21.907c1.013-1.765,7.191-12.959,9.561-27.226
		c3.287-19.796-2.034-36.195-15.814-48.742c-0.177-0.161-0.345-0.331-0.503-0.51c-0.213-0.239-21.847-24.326-45.989-34.346
		c-1.854-0.695-14.97-5.949-26.834-19.414c-11.43-12.972-23.938-36.361-18.663-74.149c0.163-1.548,1.507-13.131,6.401-27.187
		c6.883-19.761,17.644-35.154,31.14-44.549c2.272-1.962,9.714-7.076,25.512-7.076c8.756,0,18.757,1.601,29.727,4.758
		c0.139,0.041,0.276,0.085,0.412,0.134c13.203,4.733,34.447,17.776,30.321,36.641c-0.17,0.778-0.476,1.52-0.904,2.191
		c-0.64,1.005-6.513,9.821-15.581,9.823c0,0-0.001,0-0.002,0c-2.905,0-7.251-0.944-11.463-5.437
		c-0.285-0.305-0.542-0.635-0.767-0.986c-0.285-0.424-8.15-11.813-27.551-11.813c-3.487,0-7.187,0.373-11.007,1.109
		c-2.67,1.301-17.314,9.591-23.692,37.382c-0.047,0.203-0.103,0.405-0.168,0.603c-0.518,1.603-12.386,39.792,20.625,62.009
		c7.182,3.399,76.585,37.562,86.379,92.292c0.01,0.056,0.019,0.111,0.028,0.167c0.118,0.767,2.82,19.021-2.061,40.983
		c-6.57,29.564-23.78,51.664-49.77,63.909c-0.075,0.035-0.15,0.069-0.227,0.102C1529.884,982.424,1517.892,987.47,1502.677,987.471z
		"/>
	<path fill="#FFFFFF" d="M1533.939,659.617c0,0,29.939,10.733,25.986,28.811c0,0-7.909,12.428-16.382,3.39
		c0,0-12.994-20.337-46.324-13.559c0,0-20.337,7.909-28.246,42.37c0,0-14.688,44.629,23.727,70.051c0,0,73.44,33.895,83.044,87.563
		c0,0,10.733,70.051-48.019,97.732c0,0-58.187,24.856-76.829-39.545c0,0-11.299-63.271-1.131-80.219c0,0,10.735-10.734,14.689,9.039
		c0,0-9.04,71.745,21.467,89.823c0,0,31.071,20.338,61.012-19.772c0,0,30.505-50.278-7.344-84.738c0,0-22.596-25.422-48.583-36.156
		c0,0-50.844-18.077-41.24-86.433c0,0,4.52-46.324,35.026-67.226C1484.792,660.747,1496.653,648.883,1533.939,659.617z"/>
</g>
<g>
	<path fill="#FFFFFF" d="M1530.045,589.489l0.966,2.764c0.163,0.447,0.294,0.854,0.396,1.26h0.03
		c0.111-0.407,0.254-0.813,0.417-1.26l0.956-2.764h0.935l-1.931,4.918h-0.854l-1.87-4.918H1530.045z"/>
	<path fill="#FFFFFF" d="M1534.987,592.111c0.021,1.209,0.792,1.707,1.687,1.707c0.64,0,1.027-0.112,1.362-0.254l0.153,0.64
		c-0.315,0.143-0.854,0.305-1.637,0.305c-1.514,0-2.419-0.996-2.419-2.48s0.875-2.652,2.308-2.652c1.605,0,2.033,1.413,2.033,2.317
		c0,0.183-0.021,0.325-0.031,0.417H1534.987z M1537.609,591.471c0.01-0.569-0.234-1.453-1.24-1.453
		c-0.905,0-1.301,0.833-1.372,1.453H1537.609z"/>
	<path fill="#FFFFFF" d="M1543.09,594.225c-0.234,0.122-0.752,0.285-1.413,0.285c-1.484,0-2.449-1.006-2.449-2.51
		c0-1.515,1.037-2.612,2.643-2.612c0.528,0,0.996,0.132,1.239,0.254l-0.203,0.691c-0.213-0.122-0.548-0.234-1.036-0.234
		c-1.128,0-1.738,0.833-1.738,1.86c0,1.138,0.732,1.84,1.708,1.84c0.508,0,0.844-0.132,1.098-0.244L1543.09,594.225z"/>
	<path fill="#FFFFFF" d="M1545.349,588.077v1.413h1.28v0.681h-1.28v2.652c0,0.61,0.172,0.956,0.67,0.956
		c0.234,0,0.407-0.031,0.518-0.061l0.041,0.67c-0.173,0.071-0.447,0.122-0.793,0.122c-0.417,0-0.752-0.132-0.965-0.376
		c-0.254-0.265-0.346-0.702-0.346-1.281v-2.683h-0.762v-0.681h0.762v-1.179L1545.349,588.077z"/>
	<path fill="#FFFFFF" d="M1552.027,591.908c0,1.819-1.26,2.611-2.449,2.611c-1.332,0-2.358-0.976-2.358-2.53
		c0-1.646,1.078-2.612,2.439-2.612C1551.073,589.377,1552.027,590.404,1552.027,591.908z M1548.125,591.958
		c0,1.077,0.62,1.891,1.494,1.891c0.854,0,1.494-0.803,1.494-1.911c0-0.833-0.417-1.89-1.474-1.89
		C1548.583,590.048,1548.125,591.024,1548.125,591.958z"/>
	<path fill="#FFFFFF" d="M1553.159,591.024c0-0.579-0.01-1.078-0.041-1.535h0.783l0.03,0.965h0.041
		c0.224-0.661,0.762-1.077,1.362-1.077c0.102,0,0.173,0.01,0.254,0.03v0.844c-0.091-0.021-0.183-0.031-0.304-0.031
		c-0.63,0-1.078,0.478-1.2,1.148c-0.021,0.122-0.041,0.264-0.041,0.417v2.622h-0.884V591.024z"/>
	<path fill="#FFFFFF" d="M1556.524,587.192h0.895v7.215h-0.895V587.192z"/>
	<path fill="#FFFFFF" d="M1563.375,591.908c0,1.819-1.26,2.611-2.449,2.611c-1.332,0-2.358-0.976-2.358-2.53
		c0-1.646,1.078-2.612,2.439-2.612C1562.42,589.377,1563.375,590.404,1563.375,591.908z M1559.473,591.958
		c0,1.077,0.621,1.891,1.494,1.891c0.854,0,1.494-0.803,1.494-1.911c0-0.833-0.417-1.89-1.474-1.89
		S1559.473,591.024,1559.473,591.958z"/>
	<path fill="#FFFFFF" d="M1568.745,589.489c-0.02,0.355-0.041,0.751-0.041,1.352v2.856c0,1.128-0.223,1.819-0.701,2.246
		c-0.478,0.447-1.169,0.589-1.789,0.589c-0.59,0-1.24-0.142-1.637-0.407l0.224-0.681c0.325,0.204,0.833,0.387,1.443,0.387
		c0.915,0,1.585-0.478,1.585-1.718v-0.549h-0.021c-0.274,0.458-0.803,0.823-1.565,0.823c-1.22,0-2.094-1.037-2.094-2.398
		c0-1.667,1.088-2.612,2.216-2.612c0.854,0,1.321,0.447,1.535,0.854h0.02l0.041-0.742H1568.745z M1567.82,591.43
		c0-0.152-0.01-0.285-0.051-0.406c-0.163-0.519-0.6-0.945-1.25-0.945c-0.854,0-1.464,0.721-1.464,1.859
		c0,0.966,0.488,1.769,1.454,1.769c0.549,0,1.047-0.345,1.24-0.914c0.05-0.153,0.071-0.325,0.071-0.478V591.43z"/>
	<path fill="#FFFFFF" d="M1574.642,591.908c0,1.819-1.26,2.611-2.449,2.611c-1.331,0-2.358-0.976-2.358-2.53
		c0-1.646,1.078-2.612,2.439-2.612C1573.687,589.377,1574.642,590.404,1574.642,591.908z M1570.74,591.958
		c0,1.077,0.62,1.891,1.494,1.891c0.854,0,1.494-0.803,1.494-1.911c0-0.833-0.417-1.89-1.474-1.89
		C1571.197,590.048,1570.74,591.024,1570.74,591.958z"/>
	<path fill="#FFFFFF" d="M1578.253,594.408v-1.799h-3.069v-0.589l2.947-4.218h0.965v4.106h0.925v0.701h-0.925v1.799H1578.253z
		 M1578.253,591.908v-2.206c0-0.346,0.01-0.691,0.031-1.037h-0.031c-0.203,0.387-0.366,0.671-0.548,0.976l-1.616,2.246v0.021
		H1578.253z"/>
	<path fill="#FFFFFF" d="M1585.106,593.066c0,0.508,0.01,0.956,0.041,1.341h-0.793l-0.051-0.803h-0.02
		c-0.234,0.396-0.752,0.915-1.626,0.915c-0.772,0-1.697-0.426-1.697-2.154v-2.876h0.895v2.724c0,0.935,0.285,1.565,1.098,1.565
		c0.599,0,1.016-0.417,1.179-0.813c0.051-0.132,0.081-0.294,0.081-0.458v-3.018h0.895V593.066z"/>
	<path fill="#FFFFFF" d="M1586.298,593.879c0-0.376,0.254-0.64,0.61-0.64s0.6,0.264,0.6,0.64c0,0.366-0.234,0.64-0.61,0.64
		C1586.542,594.52,1586.298,594.246,1586.298,593.879z"/>
	<path fill="#FFFFFF" d="M1592.123,594.225c-0.234,0.122-0.752,0.285-1.413,0.285c-1.484,0-2.45-1.006-2.45-2.51
		c0-1.515,1.037-2.612,2.643-2.612c0.529,0,0.996,0.132,1.24,0.254l-0.203,0.691c-0.213-0.122-0.548-0.234-1.037-0.234
		c-1.128,0-1.738,0.833-1.738,1.86c0,1.138,0.732,1.84,1.708,1.84c0.508,0,0.844-0.132,1.098-0.244L1592.123,594.225z"/>
	<path fill="#FFFFFF" d="M1597.562,591.908c0,1.819-1.26,2.611-2.449,2.611c-1.332,0-2.358-0.976-2.358-2.53
		c0-1.646,1.077-2.612,2.439-2.612C1596.607,589.377,1597.562,590.404,1597.562,591.908z M1593.659,591.958
		c0,1.077,0.62,1.891,1.494,1.891c0.854,0,1.494-0.803,1.494-1.911c0-0.833-0.417-1.89-1.474-1.89
		C1594.117,590.048,1593.659,591.024,1593.659,591.958z"/>
	<path fill="#FFFFFF" d="M1598.693,590.82c0-0.508-0.01-0.925-0.041-1.331h0.782l0.041,0.792h0.03
		c0.274-0.467,0.732-0.904,1.545-0.904c0.671,0,1.179,0.406,1.393,0.985h0.02c0.152-0.274,0.346-0.487,0.549-0.64
		c0.294-0.224,0.62-0.346,1.087-0.346c0.65,0,1.616,0.427,1.616,2.134v2.896h-0.875v-2.784c0-0.945-0.345-1.515-1.067-1.515
		c-0.508,0-0.904,0.376-1.057,0.813c-0.041,0.122-0.071,0.285-0.071,0.447v3.039h-0.875v-2.947c0-0.782-0.345-1.352-1.026-1.352
		c-0.559,0-0.966,0.447-1.108,0.895c-0.051,0.132-0.071,0.284-0.071,0.437v2.967h-0.874V590.82z"/>
</g>
</svg>
