<svg width="1449.624" height="536.101" xmlns="http://www.w3.org/2000/svg" xml:space="preserve" enable-background="new 0 0 1877.624 1590.101" version="1.1">

 <g>
  <title>Layer 1</title>
  <g id="svg_1">
   <path id="svg_2" d="m111.69869,441.25359c-10.692,-0.486 -17.268,-9.178 -19.467,-14.238c-0.351,-0.806 -0.541,-1.671 -0.561,-2.549l-0.419,-18.454c-3.659,-46.625 -0.66,-108.244 -0.434,-112.726c-0.799,-40.24 11.952,-91.334 12.497,-93.494c0.016,-0.064 0.033,-0.128 0.051,-0.191c20.808,-73.44 47.332,-88.36 52.656,-90.675c6.592,-3.787 14.536,-5.706 23.622,-5.706c18.949,0 37.448,8.341 41.114,10.088c33.918,9.598 48.47,45.107 51.071,52.21c23.936,1.9 34.355,30.151 35.862,34.638c11.728,24.138 17.181,87.832 17.409,90.549c0.016,0.188 0.024,0.377 0.024,0.566c0,30.932 -18.726,45.202 -27.699,50.263l4.369,70.707l1.669,13.348c0.048,0.386 0.063,0.775 0.044,1.163c-0.452,9.494 -6.954,12.863 -12.384,12.863c0,0 0,0 0,0c-1.535,0 -2.883,-0.242 -3.843,-0.481l-57.195,-0.4c-2.814,1.948 -5.473,2.416 -7.377,2.416c-3.976,0 -7.349,-2.021 -9.582,-4.268c-7.987,-3.502 -10.019,-13.49 -8.372,-22.746l-2.877,-45.632c-0.728,-2.953 -2.149,-3.99 -2.637,-4.269c-1.06,-0.229 -1.574,-0.619 -2.304,-1.33c-0.483,-0.172 -2.099,-0.617 -5.812,-0.617c-4.003,0 -7.818,0.518 -7.856,0.523c-0.027,0.004 -0.06,0.008 -0.087,0.012c-3.982,0.497 -5.416,2.534 -5.876,3.491c0.688,16.119 -0.699,35.311 -0.896,37.919l0,6.218c0.571,6.515 0.232,10.242 -0.424,12.543l0,5.13c0,0.173 -0.006,0.347 -0.02,0.52c-0.594,7.725 -7.474,11.767 -13.962,11.767l-46.072,-0.404c-1.147,0.814 -2.519,1.251 -3.924,1.251c-0.103,0.003 -0.205,0 -0.308,-0.005zm124.6,-34.52c-0.077,0.306 -0.13,0.688 -0.151,1.037l34.658,-0.365c-1.605,-41.187 -4.375,-105.819 -5.274,-111.338c-0.049,-0.229 -0.086,-0.461 -0.11,-0.695c-0.084,-0.798 -8.5,-80.141 -16.676,-106.306c-0.088,-0.282 -0.158,-0.569 -0.209,-0.861c-0.255,-1.407 -6.769,-35.141 -43.667,-46.812c-0.222,-0.07 -0.44,-0.152 -0.653,-0.244c-0.132,-0.058 -13.989,-5.976 -26.105,-5.976c-6.212,0 -10.508,1.556 -12.77,4.625c-0.138,0.187 -0.285,0.367 -0.441,0.539c-0.137,0.152 -7.14,8.026 -14.985,22.104c3.972,-1.311 8.803,-2.339 14.582,-3.119c10.223,-1.378 21.421,-1.668 29.014,-1.668c4.902,0 8.354,0.119 9.236,0.152c0.417,-0.007 0.828,-0.011 1.234,-0.011c20.253,0 27.939,8.946 29.997,12.053c10.454,12.341 12.809,48.595 13.178,55.83c0.006,0.115 0.009,0.23 0.009,0.345c0,9.711 -2.311,17.408 -6.867,22.876c-2.76,3.312 -5.671,4.918 -7.359,5.633c-10.235,6.643 -27.913,8.057 -41.099,8.057c-0.001,0 -0.001,0 -0.002,0c-3.225,0 -5.507,-0.093 -6.231,-0.127c-0.528,0.006 -1.05,0.009 -1.567,0.009c-28.359,0 -41.212,-9.229 -44.677,-12.269c-6.138,-3.509 -9.773,-8.687 -11.887,-14.072c-2.664,16.866 -6.854,47.273 -7.419,74.715l-0.423,93.159c-0.001,0.335 -0.028,0.67 -0.079,1.001c-0.098,0.705 -0.108,1.609 -0.045,2.345c0,0 24.778,-0.413 24.869,-0.413c0.105,0 0.206,0.001 0.303,0.004l0.344,-14.108c-1.003,-2.977 -2.535,-9.417 0.068,-15.898c-0.535,-2.897 -0.875,-7.505 0.745,-12.515c-0.145,-5.063 0.61,-19.855 13.494,-27.678c0.074,-0.045 0.149,-0.089 0.225,-0.131c0.642,-0.356 15.944,-8.725 36.843,-8.725c3.238,0 6.48,0.204 9.651,0.607c0.645,-0.07 1.486,-0.13 2.478,-0.13c17.042,0 22.058,15.132 23.189,19.77c0.073,0.299 0.126,0.603 0.157,0.909l1.236,11.947c0.417,2.064 2.211,11.701 2.608,26.203l0.844,17.298c0.04,0.821 -0.015,1.469 -0.266,2.243zm53.03,-163.889c1.895,16.429 3.969,40.212 5.265,55.817c0.26,-0.849 0.503,-1.702 0.722,-2.544c-0.155,-7.365 -2.234,-26.856 -3.054,-34.013c-0.715,-6.973 -1.734,-13.398 -2.933,-19.26zm-122.327,-11.702c0.509,0.164 4.135,1.237 11.525,1.237c0.345,0 0.689,0.026 1.031,0.079l4.477,0.689l4.315,-0.664c1.637,-0.331 13.095,-2.577 22.782,-2.645c2.815,-0.396 5.962,-1.627 7.11,-2.706c-1.001,-14.044 -3.368,-30.361 -5.518,-33.628c-0.232,-0.269 -0.325,-0.369 -0.504,-0.682c-0.548,-0.73 -5.094,-6.252 -17.109,-6.252c-0.607,0 -1.23,0.014 -1.871,0.043c-0.036,0.002 -0.072,0.003 -0.108,0.004c-10.218,0.301 -22.737,1.29 -26.415,2.337c-1.128,0.954 -2.53,1.495 -4.069,1.495c-0.098,0 -0.198,-0.002 -0.298,-0.006c-0.995,0.186 -2.833,1.607 -3.954,5.928c-0.156,0.601 -0.394,1.178 -0.707,1.714c-0.084,0.147 -9.37,16.633 -1.703,29.331c0.64,0.567 3.296,2.587 9.366,3.315c0.652,0.08 1.063,0.157 1.65,0.411z"/>
   <path id="svg_3" d="m202.67669,164.58859c0,0 -49.996,-2.119 -59.317,9.321c0,0 -11.016,21.608 -11.44,40.251c0,0 -3.813,22.456 11.44,30.506c0,0 11.016,11.44 42.369,11.016c0,0 31.354,1.695 44.064,-7.203c0,0 10.592,-2.966 10.592,-22.456c0,0 -2.118,-41.522 -11.863,-52.114c0,0.001 -5.084,-9.745 -25.845,-9.321zm8.898,72.028c-9.745,0 -22.032,2.542 -22.032,2.542l-5.508,0.847l-5.508,-0.847c-9.745,0 -13.982,-1.695 -13.982,-1.695c-10.592,-1.271 -13.982,-5.932 -13.982,-5.932c-10.592,-16.524 1.271,-36.861 1.271,-36.861c2.966,-11.44 10.592,-11.016 10.592,-11.016c1.695,-2.966 30.506,-3.813 30.506,-3.813c18.643,-0.847 24.998,9.321 24.998,9.321c5.084,5.932 7.203,39.404 7.203,39.404c-2.118,6.779 -13.558,8.05 -13.558,8.05zm106.771,54.657c0,0 -5.508,-65.672 -16.948,-88.552c0,0 -9.745,-31.353 -33.048,-30.506l-2.542,-3.39c0,0 -13.135,-39.827 -47.454,-49.148c0,0 -36.438,-18.219 -59.317,-4.661c0,0 -27.54,10.169 -49.148,86.434c0,0 -13.134,52.114 -12.287,91.942c0,0 -3.389,63.978 0.424,112.278l0.424,18.643c0,0 4.237,9.745 13.558,10.169l1.695,-1.271l48.301,0.424c0,0 6.779,0 7.203,-5.508l0,-6.355c0,0 1.271,-1.695 0.423,-11.016l0,-6.779c0,0 1.695,-21.608 0.848,-38.557c0,0 1.695,-8.05 11.863,-9.321c0,0 15.253,-2.119 19.066,1.695c0,0 5.508,1.694 7.203,9.745l2.966,47.03c0,0 -2.966,14.406 5.508,16.524c0,0 4.66,6.779 10.592,0.848l60.588,0.423c0,0 8.05,2.966 8.474,-5.932l-1.695,-13.558l-4.661,-75.417c0,-0.002 27.964,-10.594 27.964,-46.184zm-40.675,121.6l-2.966,1.271l-40.251,0.424c-7.203,-1.271 -4.66,-9.745 -4.66,-9.745l-0.848,-17.372c-0.424,-15.677 -2.542,-25.421 -2.542,-25.421l-1.271,-12.287c-4.237,-17.372 -19.066,-14.406 -19.066,-14.406c-24.151,-3.39 -43.217,7.203 -43.217,7.203c-11.864,7.203 -10.168,22.879 -10.168,22.879c-2.542,6.355 -0.424,12.287 -0.424,12.287c-3.813,6.355 -0.424,13.982 -0.424,13.982l-0.424,17.371c-0.424,7.203 -7.203,4.661 -7.203,4.661l-25.421,0.424c-7.627,0.847 -5.932,-10.168 -5.932,-10.168l0.424,-93.213c0.847,-41.522 9.745,-88.976 9.745,-88.976c7.203,-53.386 36.861,-86.01 36.861,-86.01c11.863,-16.101 47.03,-0.848 47.03,-0.848c41.522,13.135 48.301,52.114 48.301,52.114c8.474,27.117 16.948,107.618 16.948,107.618c1.271,5.508 5.508,114.821 5.508,114.821l0,3.391zm11.44,-97.873c0,0 -5.367,-69.204 -8.474,-85.586c0,0 -6.779,-34.178 -8.756,-36.438c0,0 2.26,-4.802 6.497,1.412c0,0 16.1,22.879 20.62,66.943c0,0 3.107,27.117 3.107,35.59c0,0.001 -5.933,24.293 -12.994,18.079z" fill="#FFFFFF"/>
   <path id="svg_4" d="m522.58669,442.33259c-1.539,0 -2.776,-0.208 -3.417,-0.343c-10.105,-1.683 -13.485,-8.323 -13.927,-12.197l-5.916,-42.681c-0.012,-0.085 -0.022,-0.171 -0.031,-0.257l-7.618,-76.181c0,0 -10.593,-84.748 -10.598,-84.793l-1.754,-16.783l-9.79,63.213l-12.276,95.245l-8.052,61.45c-0.081,0.616 -0.246,1.218 -0.491,1.79c-3.482,8.125 -7.886,9.986 -10.201,10.372c-0.368,0.062 -0.741,0.093 -1.114,0.093c-0.161,0 -0.322,-0.006 -0.482,-0.018l-5.713,-0.408c-8.922,-0.11 -13.36,-5.766 -14.581,-9.121c-0.08,-0.221 -0.148,-0.445 -0.206,-0.673l-4.237,-16.947c-0.049,-0.197 -0.09,-0.395 -0.121,-0.595l-17.779,-113.444l-17.192,-90.824l-9.25,61.86l-20.755,131.324l-2.955,21.956c-0.017,0.121 -0.037,0.243 -0.06,0.364l-1.695,8.897c-0.215,1.13 -0.715,2.187 -1.451,3.072c-2.06,2.471 -6.004,5.417 -13.095,5.417c0,0 0.001,0 0,0c-4.158,0 -7.681,-1.035 -8.068,-1.153c-0.237,-0.072 -0.469,-0.157 -0.697,-0.255c-7.391,-3.167 -9.266,-11.224 -7.371,-17.832l2.892,-22.727c0.01,-0.082 0.022,-0.164 0.036,-0.245l23.296,-141.469l19.863,-131.439c0.6,-8.569 4.798,-15.323 5.281,-16.074c0.737,-1.146 1.801,-2.043 3.055,-2.575c3.083,-1.308 5.995,-1.971 8.656,-1.971c8.556,0 13.508,6.551 14.547,13.795c4.195,5.103 6.973,13.129 8.462,24.405c0.963,7.292 1.064,13.744 1.068,15.933l21.887,105.228c0.02,0.098 0.039,0.196 0.054,0.295l10.267,63.312c0,0 15.322,-105.213 15.328,-105.246l16.081,-100.292c2.257,-18.156 13.979,-19.675 16.136,-19.8l0,-0.003c0.276,-0.013 0.549,-0.02 0.821,-0.02c10.312,0 16.985,9.266 19.302,14.741c0.246,0.582 0.41,1.195 0.486,1.822l2.118,17.372l13.128,101.638c0,0 16.968,142.107 16.973,142.161l4.661,48.725c0.094,0.99 -0.03,1.989 -0.364,2.925c-2.002,5.611 -6.915,8.961 -13.141,8.961z"/>
   <path id="svg_5" d="m318.34569,424.31259c0,0 -2.542,7.627 3.39,10.169c0,0 9.745,2.966 13.981,-2.119l1.695,-8.897l2.966,-22.032l20.761,-131.345l13.558,-90.67c0,0 2.119,-5.932 3.813,0.847l22.456,118.634l17.795,113.55l4.237,16.948c0,0 1.695,4.661 8.474,4.661l5.932,0.424c0,0 2.542,-0.424 5.084,-6.355l8.05,-61.436l12.287,-95.331l14.829,-95.756c0,0 1.695,-14.406 4.237,-7.203l5.932,56.775l10.592,84.739l7.626,76.265l5.932,42.793c0,0 0.424,5.084 8.474,6.355c0,0 6.779,1.695 8.897,-4.237l-4.661,-48.725l-16.948,-141.938l-13.134,-101.687l-2.119,-17.372c0,0 -4.661,-11.016 -13.558,-10.592c0,0 -8.05,0 -9.745,13.982l-16.101,100.416l-19.064,130.923l-0.848,11.439c0,0 -1.695,14.406 -3.813,-6.355l-15.253,-94.061l-22.032,-105.923c0,0 0.424,-29.235 -9.321,-38.132c0,0 0,-14.405 -13.982,-8.474c0,0 -3.813,5.932 -4.237,13.134l-19.914,131.769l-23.303,141.514l-2.965,23.303z" fill="#FFFFFF"/>
   <g id="svg_6">
    <path id="svg_7" d="m596.95669,441.71059c-0.703,0 -1.188,-0.042 -1.416,-0.067c-28.27,-3.056 -40.418,-28.186 -43.077,-41.691c-6.279,-15.817 -10.791,-41.333 -13.408,-75.859c-1.807,-23.833 -2.054,-44.102 -2.082,-47.206c-2.028,-17.379 3.133,-91.958 3.399,-95.777c2.664,-46.848 24.262,-69.834 25.18,-70.79c0.214,-0.222 0.442,-0.43 0.684,-0.621c5.811,-4.595 12.461,-6.924 19.766,-6.924c15.21,0 27.987,10.4 29.019,11.262c9.791,8.045 18.379,23.26 25.526,45.223c4.861,14.939 7.34,27.791 7.701,29.731c6.027,24.241 3.235,102.181 3.113,105.497c-0.001,0.044 -0.003,0.088 -0.006,0.132c-2.973,52.663 -18.232,107.995 -18.88,110.324c-0.02,0.069 -0.039,0.137 -0.061,0.206c-10.598,33.922 -29.817,36.56 -35.458,36.56c0,0 0.001,0 0,0zm-19.819,-76.515c5.95,35.052 14.448,39.304 15.561,39.709c0.093,-0.015 0.186,-0.027 0.279,-0.038c7.306,-0.835 12.382,-16.578 13.576,-23.631c0.093,-0.551 0.254,-1.088 0.479,-1.599c3.078,-6.995 8.307,-49.384 10.89,-74.542c3.941,-56.273 0.412,-93.733 -2.006,-105.682c-0.083,-0.408 -0.129,-0.83 -0.136,-1.245c-0.389,-24.517 -19.177,-56.037 -19.367,-56.353c-0.18,-0.299 -0.338,-0.615 -0.47,-0.938c-0.74,-1.816 -1.981,-3.498 -6.018,-3.498c-2.303,0 -4.231,0.601 -4.25,0.607c-0.196,0.065 -0.366,0.112 -0.555,0.155c-3.106,1.786 -7.781,15.442 -9.663,28.277c-0.009,0.064 -0.02,0.129 -0.031,0.194c-0.041,0.265 -1.339,8.996 -4.994,68.301c-3.683,59.706 6.358,127.959 6.705,130.283z"/>
    <path id="svg_8" d="m641.62369,190.43359c0,0 -9.745,-53.809 -30.93,-71.181c0,0 -22.032,-18.642 -40.251,-4.237c0,0 -20.761,21.608 -23.303,66.52c0,0 -5.508,78.807 -3.389,94.907c0,0 0.423,85.163 15.253,121.601c0,0 5.932,33.472 37.285,36.861c0,0 19.066,2.118 29.658,-31.777c0,0 15.677,-56.351 18.643,-108.889c0,0.001 2.966,-80.501 -2.966,-103.805zm-16.948,115.246c0,0 -6.779,66.096 -11.44,76.688c0,0 -4.66,27.54 -19.49,29.234c0,0 -14.829,4.661 -23.303,-45.335c0,0 -10.592,-69.909 -6.779,-131.769c3.813,-61.859 5.084,-69.062 5.084,-69.062s4.661,-31.777 14.83,-33.896c0,0 13.981,-4.66 18.643,6.779c0,0 19.913,33.048 20.337,59.741c0,0.001 7.203,35.167 2.118,107.62z" fill="#FFFFFF"/>
   </g>
   <path id="svg_9" d="m676.44469,441.74159c-2.959,0 -5.408,-0.471 -6.083,-0.614c-5.235,-0.995 -8.537,-2.733 -10.382,-5.467c-0.627,-0.928 -1.053,-1.955 -1.263,-3.003c-1.22,-3.98 -0.607,-9.203 -0.146,-11.909l0,-16.454c-1.501,-7.666 -0.73,-27.441 -0.426,-33.896c0,0 -0.845,-53.243 -0.845,-53.279l0,-188.545c0,-0.188 0.008,-0.375 0.023,-0.563c1.352,-16.222 11.799,-21.042 17.806,-21.441c1.388,-0.263 2.766,-0.396 4.105,-0.396c14.469,0 21.091,14.497 22.798,23.356l21.511,72.967c0.036,0.122 0.068,0.244 0.097,0.366l21.608,91.942l8.52,36.379l0.558,-71.679l-0.421,-36.623l-2.532,-40.929c-0.009,-0.139 -0.013,-0.279 -0.013,-0.418l0,-48.179c-0.413,-11.63 1.784,-20.022 6.529,-24.947c3.944,-4.093 8.293,-4.41 9.533,-4.41c0.095,0 0.226,0.002 0.32,0.006c0.17,0.007 0.341,0.021 0.51,0.041c7.99,0.94 11.974,4.807 13.91,7.885c3.717,5.911 2.449,12.714 1.753,15.309c-1.188,17.064 -1.202,47.21 -1.202,47.517c0,11.79 1.599,83.74 1.689,87.803c2.519,34.437 -1.527,105.733 -1.7,108.756l-2.964,58.003c-0.019,0.378 -0.07,0.755 -0.152,1.125c-1.593,7.166 -4.814,10.799 -9.577,10.799c-0.705,0 -1.405,-0.099 -2.08,-0.287l-8.825,0.707c-0.18,0.015 -0.361,0.021 -0.541,0.021c-0.446,0 -0.891,-0.044 -1.33,-0.131c-9.731,-1.946 -13.152,-16.178 -14.207,-22.606l-14.319,-53.905c-0.023,-0.085 -0.044,-0.171 -0.063,-0.258l-10.995,-49.055l-28.571,-112.418c0.011,24.404 0.071,99.375 0.421,127.707c0.418,33.853 2.518,96.254 2.539,96.881c0.011,0.326 -0.002,0.652 -0.038,0.977l-0.423,3.813c-0.145,1.301 -0.663,2.532 -1.491,3.544c-2.057,2.513 -6.092,5.509 -13.641,5.509c0.001,-0.001 0.001,-0.001 0,-0.001z"/>
   <path id="svg_10" d="m665.35069,421.34759c0,0 -1.271,6.779 0,9.745c0,0 -0.423,2.118 6.355,3.39c0,0 9.321,2.118 13.135,-2.542l0.424,-3.813c0,0 -2.119,-62.707 -2.542,-97.026c-0.423,-34.319 -0.423,-135.582 -0.423,-135.582l0,-38.556c0,0 0.423,-5.932 2.966,3.813l38.979,153.377l11.016,49.148l14.406,54.233c0,0 2.542,16.1 8.897,17.372l10.592,-0.848c0,0 2.119,2.542 3.813,-5.084l2.966,-58.046c0,0 4.237,-73.723 1.695,-108.042c0,0 -1.695,-75.841 -1.695,-88.128c0,0 0,-31.353 1.271,-48.725c0,0 4.661,-13.558 -9.745,-15.253c0,0 -10.168,-0.424 -9.321,22.456l0,48.301l2.542,41.099l0.423,36.861l-0.847,108.889c0,0 -2.966,16.1 -5.932,-5.084l-15.677,-66.943l-21.608,-91.942l-21.608,-73.299c0,0 -3.813,-21.185 -19.49,-17.795c0,0 -10.593,0 -11.864,15.253l0,77.96l0,110.584l0.848,53.386c0,0 -1.271,26.692 0.423,33.048l0,17.793l0.001,0z" fill="#FFFFFF"/>
   <path id="svg_11" d="m852.19969,442.10859c-12.787,0 -39.429,-7.729 -49.116,-36.931c-1.871,-4.176 -15.238,-36.214 -14.438,-96.941c-0.073,-4.17 -1.16,-72.059 4.294,-114.015c0.208,-1.718 5.467,-43.539 25.114,-70.526c2.067,-3.752 12.593,-19.928 40.391,-19.928c1.98,0 4.034,0.084 6.104,0.25c3.909,0.25 16.541,1.569 21.987,8.216c1.422,1.506 5.531,6.465 5.467,13.403c-0.032,3.455 -1.157,8.532 -6.146,13.636c-0.971,1.5 -2.96,3.341 -6.874,3.341c-1.881,0 -5.692,-0.335 -17.024,-3.234c-0.155,-0.04 -0.31,-0.085 -0.463,-0.136c0,0 0,0 0,0c-0.003,0 -1.957,-0.591 -4.632,-0.591c-5.793,0 -10.125,2.549 -13.243,7.792c-0.067,0.113 -0.137,0.224 -0.211,0.333c-0.041,0.061 -4.887,7.352 -9.911,20.25c-4.619,11.858 -10.344,31.035 -11.388,55.054c-0.004,0.084 -0.009,0.168 -0.016,0.251c-0.046,0.571 -4.575,57.524 -1.274,95.899c0.015,0.176 0.023,0.354 0.025,0.53c0.118,15.363 2.814,58.888 13.724,75.572c0.287,0.438 0.458,0.738 0.633,1.221c0.43,0.991 3.677,7.691 12.833,7.691c4.041,0 8.748,-1.249 13.993,-3.712c0.263,-0.124 0.533,-0.229 0.808,-0.318c1.486,-1.574 8.557,-11.37 12.246,-57.826l0.418,-41.398c-0.27,-4.452 2.268,-12.65 13.968,-15.703c0.535,-0.14 1.083,-0.213 1.636,-0.22l38.02,-0.422c0.123,-0.004 0.301,-0.009 0.528,-0.009c2.188,0 9.647,0.476 13.793,6.599c3.226,4.764 3.297,11.092 0.211,18.805c-0.07,0.174 -0.146,0.346 -0.23,0.514c-1.341,2.682 -5.881,7.653 -21.221,10.811c-0.401,0.083 -0.81,0.129 -1.22,0.138l-12.767,0.278c0.087,17.339 -0.666,62.927 -10.374,84.991c-1.066,2.597 -14.378,33.476 -45.022,36.304c-0.207,0.022 -0.415,0.031 -0.623,0.031z"/>
   <path id="svg_12" d="m881.43469,116.71159c0,0 9.321,8.897 -1.271,18.643c0,0 1.695,2.119 -16.524,-2.542c0,0 -16.524,-5.508 -25.846,10.168c0,0 -20.337,30.083 -22.456,78.807c0,0 -4.661,57.622 -1.271,97.026c0,0 0.424,57.199 14.829,79.231c0,0 8.05,20.761 36.014,7.626c0,0 11.863,0.424 16.948,-63.978l0.424,-41.946c0,0 -0.848,-6.355 8.897,-8.897l38.132,-0.424c0,0 14.83,-0.847 8.05,16.101c0,0 -2.119,4.237 -16.524,7.203l-19.49,0.424c0,0 1.695,63.13 -9.745,88.976c0,0 -11.864,29.659 -39.404,32.201c0,0 -32.201,0 -42.793,-32.625c0,0 -14.83,-31.353 -13.982,-94.483c0,0 -1.271,-70.757 4.237,-113.126c0,0 5.084,-41.946 24.151,-67.791c0,0 8.897,-19.066 40.251,-16.524c0.001,-0.002 13.56,0.846 17.373,5.93z" fill="#FFFFFF"/>
   <path id="svg_13" d="m1149.86669,439.58559c-5.974,0 -12.412,-0.945 -19.134,-2.808c-0.24,-0.066 -0.477,-0.146 -0.708,-0.239c-1.542,-0.617 -37.853,-16.073 -44.908,-100.584c-0.488,-4.907 -10.204,-102.764 -11.881,-130.709c-0.005,-0.093 -0.009,-0.187 -0.011,-0.28l-1.125,-60.803c-0.438,-5.498 -1.563,-22.804 0.969,-29.768c0.112,-0.309 0.246,-0.608 0.402,-0.897c0.907,-1.686 5.864,-10.093 14.338,-10.093c5.416,0 10.088,3.337 13.885,9.919c0.561,0.972 0.872,2.068 0.904,3.19l2.257,77.268c0.319,4.782 9.218,136.806 18.421,171.451c0.012,0.046 0.024,0.092 0.035,0.139c5.503,22.557 14.942,38.986 20.305,40.178c0.526,0.117 0.823,0.194 1.29,0.424c0.296,0.11 1.753,0.61 3.807,0.61c7.758,0 14.638,-6.748 19.897,-19.515c3.607,-9.466 11.666,-42.022 16.478,-97.874l2.818,-103.685c0.011,-1.206 0.184,-18.219 1.139,-35.213c0.585,-10.416 1.349,-18.829 2.27,-25.008c1.393,-9.345 3.203,-15.242 8.062,-17.099c1.275,-0.622 3.814,-1.634 6.854,-1.634c3.58,0 12.145,1.491 14.354,15.297c0.063,0.397 0.092,0.799 0.084,1.202c0,0 -1.131,58.83 -1.133,58.869c-0.034,0.924 -3.375,92.571 -2.825,107.402c0.008,0.235 0.005,0.47 -0.011,0.705c-0.233,3.467 -5.832,84.593 -21.284,114.951c-3.298,12.459 -16.652,34.604 -45.549,34.604z"/>
   <path id="svg_14" d="m1078.87569,143.82759c0,0 -1.694,-20.902 0.565,-27.116c0,0 7.908,-14.688 16.382,0l2.26,77.395c0,0 9.037,136.712 18.642,172.867c0,0 10.168,41.805 25.421,45.194c0,0 19.773,9.039 32.766,-22.597c0,0 10.733,-27.681 16.948,-99.992l2.825,-103.946c0,0 0.563,-69.486 7.343,-71.181c0,0 9.604,-5.649 11.863,8.474l-1.129,58.752c0,0 -3.39,92.648 -2.825,107.901c0,0 -5.649,84.174 -20.902,112.985c0,0 -9.604,40.674 -56.493,27.681c0,0 -33.896,-13.558 -40.674,-94.907c0,0 -10.17,-102.251 -11.864,-130.498l-1.128,-61.012z" fill="#FFFFFF"/>
   <path id="svg_15" d="m1286.01069,441.17559c-12.392,0 -23.369,-3.269 -32.625,-9.717c-11.846,-8.252 -20.482,-21.522 -25.668,-39.439c-0.066,-0.228 -0.12,-0.459 -0.162,-0.693c-0.117,-0.658 -2.896,-16.326 -4.459,-34.361c-2.218,-25.611 -0.848,-42.142 4.189,-50.538c0.285,-0.476 0.627,-0.914 1.02,-1.306c0.817,-0.817 5.191,-4.894 11.049,-4.894c5.292,0 12.205,3.019 15.081,17.397c0.143,0.716 0.169,1.452 0.078,2.177c-2.345,18.734 -3.648,70.198 18.197,83.144c0.086,0.051 0.172,0.104 0.256,0.16c0.022,0.014 6.502,4.049 15.808,4.049c12.841,0 24.896,-7.369 35.836,-21.907c1.013,-1.765 7.191,-12.959 9.561,-27.226c3.287,-19.796 -2.034,-36.195 -15.814,-48.742c-0.177,-0.161 -0.345,-0.331 -0.503,-0.51c-0.213,-0.239 -21.847,-24.326 -45.989,-34.346c-1.854,-0.695 -14.97,-5.949 -26.834,-19.414c-11.43,-12.972 -23.938,-36.361 -18.663,-74.149c0.163,-1.548 1.507,-13.131 6.401,-27.187c6.883,-19.761 17.644,-35.154 31.14,-44.549c2.272,-1.962 9.714,-7.076 25.512,-7.076c8.756,0 18.757,1.601 29.727,4.758c0.139,0.041 0.276,0.085 0.412,0.134c13.203,4.733 34.447,17.776 30.321,36.641c-0.17,0.778 -0.476,1.52 -0.904,2.191c-0.64,1.005 -6.513,9.821 -15.581,9.823c0,0 -0.001,0 -0.002,0c-2.905,0 -7.251,-0.944 -11.463,-5.437c-0.285,-0.305 -0.542,-0.635 -0.767,-0.986c-0.285,-0.424 -8.15,-11.813 -27.551,-11.813c-3.487,0 -7.187,0.373 -11.007,1.109c-2.67,1.301 -17.314,9.591 -23.692,37.382c-0.047,0.203 -0.103,0.405 -0.168,0.603c-0.518,1.603 -12.386,39.792 20.625,62.009c7.182,3.399 76.585,37.562 86.379,92.292c0.01,0.056 0.019,0.111 0.028,0.167c0.118,0.767 2.82,19.021 -2.061,40.983c-6.57,29.564 -23.78,51.664 -49.77,63.909c-0.075,0.035 -0.15,0.069 -0.227,0.102c-0.503,0.213 -12.495,5.259 -27.71,5.26z"/>
   <path id="svg_16" d="m1317.27269,113.32159c0,0 29.939,10.733 25.986,28.811c0,0 -7.909,12.428 -16.382,3.39c0,0 -12.994,-20.337 -46.324,-13.559c0,0 -20.337,7.909 -28.246,42.37c0,0 -14.688,44.629 23.727,70.051c0,0 73.44,33.895 83.044,87.563c0,0 10.733,70.051 -48.019,97.732c0,0 -58.187,24.856 -76.829,-39.545c0,0 -11.299,-63.271 -1.131,-80.219c0,0 10.735,-10.734 14.689,9.039c0,0 -9.04,71.745 21.467,89.823c0,0 31.071,20.338 61.012,-19.772c0,0 30.505,-50.278 -7.344,-84.738c0,0 -22.596,-25.422 -48.583,-36.156c0,0 -50.844,-18.077 -41.24,-86.433c0,0 4.52,-46.324 35.026,-67.226c0,-0.001 11.861,-11.865 49.147,-1.131z" fill="#FFFFFF"/>
  </g>
 </g>
</svg>